<svg width="275" height="210" viewBox="0 0 275 210" fill="none" xmlns="http://www.w3.org/2000/svg">
<path d="M152.383 40.0288H274.513V129.134H152.383V40.0288Z" fill="#E6E6E6"/>
<path d="M158.634 92.4902H181.808V118.223H158.634V92.4902Z" fill="#C1C1C1"/>
<path d="M181.442 87.6562H111.353V0.0498585H181.442V87.6562Z" fill="#24285B"/>
<path d="M96.3671 147.227L115.036 116.469C115.036 116.469 122.008 116.469 123.16 113.645C123.882 111.89 119.55 111.424 116.206 111.324C115.079 111.299 113.958 111.506 112.915 111.932C111.871 112.358 110.926 112.994 110.138 113.8L87.1651 137.349C87.1651 137.349 82.6417 151.449 96.3671 147.227Z" fill="#F4A28C"/>
<path opacity="0.08" d="M96.3671 147.227L115.036 116.469C115.036 116.469 122.008 116.469 123.16 113.645C123.882 111.89 119.55 111.424 116.206 111.324C115.079 111.299 113.958 111.506 112.915 111.932C111.871 112.358 110.926 112.994 110.138 113.8L87.1651 137.349C87.1651 137.349 82.6417 151.449 96.3671 147.227Z" fill="black"/>
<path d="M122.063 161.227C122.063 161.227 128.789 167.569 120.071 167.313C111.354 167.057 114.579 160.276 122.063 161.227Z" fill="#68E1FD"/>
<path opacity="0.45" d="M96.8149 209.914C150.028 209.914 193.166 205.933 193.166 201.023C193.166 196.112 150.028 192.131 96.8149 192.131C43.6014 192.131 0.463379 196.112 0.463379 201.023C0.463379 205.933 43.6014 209.914 96.8149 209.914Z" fill="#E6E6E6"/>
<path d="M68.5968 80.949C69.1368 83.2474 69.3673 85.6076 69.2821 87.9671C69.2525 88.2468 69.168 88.518 69.0334 88.765C68.8988 89.0121 68.7168 89.2301 68.4978 89.4067C68.2788 89.5833 68.027 89.7149 67.7571 89.794C67.4871 89.8731 67.2042 89.8982 66.9245 89.8678C66.0183 89.8238 65.1441 89.5194 64.4066 88.991C63.6691 88.4626 63.0997 87.7327 62.7667 86.8888L60.9391 83.4072C60.6522 82.6714 60.601 81.8647 60.7925 81.0986C60.984 80.3325 61.4088 79.6448 62.0082 79.1306C64.1648 77.0837 68.1307 78.3995 68.5968 80.949Z" fill="#F4A28C"/>
<path d="M61.3228 85.5637L62.6295 99.417L70.2141 98.1559L66.2207 88.5793L61.3228 85.5637Z" fill="#F4A28C"/>
<path d="M64.658 85.1982C64.658 85.1982 64.393 83.5808 63.1959 83.8915C61.9988 84.2021 62.3644 86.5232 64.0549 86.4958L64.658 85.1982Z" fill="#F4A28C"/>
<path d="M69.081 83.5808L70.4883 85.0246C70.5684 85.1072 70.6264 85.2086 70.657 85.3195C70.6876 85.4304 70.6899 85.5472 70.6635 85.6592C70.6371 85.7711 70.5829 85.8746 70.506 85.9602C70.429 86.0457 70.3318 86.1105 70.2232 86.1486L68.6606 86.6877L69.081 83.5808Z" fill="#F4A28C"/>
<path d="M96.979 149.886C96.979 149.886 122.922 143.307 126.303 154.775C129.684 166.243 90.0158 165.156 90.0158 165.156L80.9966 158.019L96.979 149.886Z" fill="#24285B"/>
<path d="M70.2142 98.156C70.2142 98.156 85.3194 99.6912 95.8464 111.726C102.097 118.872 99.7301 124.821 96.7602 128.476C95.5299 130.041 94.7065 131.887 94.3636 133.849C94.0208 135.81 94.1692 137.826 94.7956 139.716L97.9208 149.466C97.9208 149.466 81.2347 160.231 70.7168 159.098C60.1989 157.964 26.909 99.81 70.2142 98.156Z" fill="#68E1FD"/>
<path opacity="0.08" d="M49.6443 110.383C48.5412 114.031 48.2481 117.876 48.7853 121.65C49.7996 127.178 55.0357 163.968 89.6689 154.035L97.8932 149.466L89.1206 142.055L72.3249 124.483L65.0145 110.383H49.6443Z" fill="black"/>
<path d="M61.5151 135.229C54.0859 112.74 20.933 116.423 18.1002 139.944C15.1761 164.224 18.4932 197.724 57.5766 202.083C119.715 208.991 129.52 180.919 120.748 166.134C111.975 151.348 68.3503 159.116 61.8349 136.298C61.7344 135.914 61.6247 135.576 61.5151 135.229Z" fill="#FFD200"/>
<path d="M112.752 147.912C112.752 147.912 121.415 150.005 122.045 144.495L112.578 143.992L112.752 147.912Z" fill="#F4A28C"/>
<path d="M60.0983 111.013C60.0764 109.83 60.3743 108.663 60.9607 107.635C61.547 106.608 62.4 105.757 63.4295 105.174C64.4591 104.591 65.627 104.297 66.8099 104.323C67.9928 104.348 69.1468 104.693 70.1501 105.32C73.12 107.276 76.0442 111.324 77.817 119.274C81.262 134.808 89.8609 141.488 112.743 143.49V147.912C112.743 147.912 61.0212 161.062 60.0983 111.013Z" fill="#F4A28C"/>
<path d="M107.205 141.004H134.025V144.86H107.205V141.004Z" fill="#FFD200"/>
<path d="M130.498 142.932L139.17 114.476L141.655 115.043L134.025 144.86L130.498 142.932Z" fill="#FFD200"/>
<path opacity="0.45" d="M39.6472 170.237C35.2701 166.243 28.4257 170.611 30.3173 176.222C32.9856 184.154 39.1446 191.94 52.6598 194.233C83.0255 199.405 80.0739 188.166 78.1092 183.268C76.5466 179.265 56.4338 185.506 39.6472 170.237Z" fill="white"/>
<path d="M61.8163 90.7449C61.8163 90.7449 53.1717 86.9708 56.2878 79.9254C59.4039 72.88 67.9662 74.9452 67.6464 79.2766C67.6464 79.2766 63.5525 80.428 63.58 83.0323C63.6074 85.6367 66.2483 88.6979 61.8163 90.7449Z" fill="#24285B"/>
<path d="M53.6379 83.0964C55.7879 83.0964 57.5307 81.3535 57.5307 79.2036C57.5307 77.0537 55.7879 75.3108 53.6379 75.3108C51.488 75.3108 49.7451 77.0537 49.7451 79.2036C49.7451 81.3535 51.488 83.0964 53.6379 83.0964Z" fill="#24285B"/>
<path d="M148.225 50.4003C145.137 50.4003 142.117 49.4844 139.549 47.7684C136.981 46.0524 134.979 43.6134 133.797 40.7598C132.615 37.9061 132.306 34.7661 132.908 31.7367C133.511 28.7073 134.998 25.9247 137.182 23.7406C139.367 21.5565 142.149 20.0692 145.179 19.4666C148.208 18.864 151.348 19.1733 154.202 20.3553C157.055 21.5373 159.494 23.5389 161.21 26.1071C162.926 28.6753 163.842 31.6947 163.842 34.7834C163.837 38.9238 162.19 42.8932 159.263 45.8209C156.335 48.7486 152.366 50.3955 148.225 50.4003ZM148.225 23.37C145.968 23.3682 143.76 24.0361 141.882 25.2891C140.004 26.5421 138.539 28.324 137.674 30.4094C136.809 32.4947 136.582 34.7899 137.021 37.0045C137.46 39.2191 138.547 41.2536 140.142 42.8507C141.738 44.4478 143.772 45.5357 145.986 45.9769C148.2 46.418 150.496 46.1925 152.582 45.3289C154.668 44.4653 156.451 43.0024 157.705 41.1253C158.96 39.2482 159.63 37.0412 159.63 34.7834C159.625 31.7595 158.422 28.8606 156.285 26.7215C154.147 24.5824 151.249 23.3773 148.225 23.37Z" fill="white"/>
<path d="M163.842 34.7834H159.63C159.627 31.7587 158.425 28.8585 156.288 26.7188C154.15 24.5792 151.25 23.3748 148.226 23.37V19.1665C152.366 19.1713 156.335 20.8182 159.263 23.7459C162.191 26.6736 163.838 30.643 163.842 34.7834Z" fill="#68E1FD"/>
<path d="M148.226 50.4004V46.1969C151.25 46.192 154.15 44.9877 156.288 42.8481C158.425 40.7084 159.627 37.8081 159.63 34.7834H163.842C163.838 38.9238 162.191 42.8932 159.263 45.8209C156.335 48.7486 152.366 50.3955 148.226 50.4004Z" fill="#FFD200"/>
<path d="M148.563 29.7302C148.846 29.7302 148.929 29.8307 148.929 30.1049V30.6989C149.411 30.7574 149.869 30.9431 150.256 31.237C150.643 31.5308 150.945 31.9222 151.131 32.3711C151.277 32.6635 151.213 32.8189 150.884 32.9651L150.299 33.2301C150.016 33.358 149.888 33.3032 149.733 33.0108C149.607 32.7131 149.389 32.4636 149.111 32.2991C148.833 32.1346 148.51 32.0637 148.189 32.097C147.165 32.097 146.69 32.3985 146.69 33.093C146.714 33.3024 146.811 33.4969 146.962 33.6434C147.114 33.79 147.311 33.8796 147.521 33.8972C147.823 33.9621 148.128 34.0079 148.435 34.0342C148.984 34.0546 149.527 34.1594 150.044 34.3449C150.302 34.4291 150.544 34.5591 150.756 34.7287C150.971 34.9534 151.138 35.2188 151.247 35.5092C151.357 35.7996 151.408 36.109 151.396 36.4193C151.396 37.7352 150.482 38.6215 148.956 38.85V39.4805C148.956 39.7547 148.874 39.8552 148.591 39.8552H147.933C147.659 39.8552 147.558 39.7547 147.558 39.4805V38.8683C147.021 38.8341 146.506 38.6425 146.077 38.3175C145.648 37.9925 145.324 37.5485 145.146 37.0407C145.045 36.7757 145.146 36.602 145.42 36.4924L146.014 36.2731C146.315 36.1634 146.452 36.2731 146.58 36.5381C146.702 36.8629 146.927 37.1384 147.221 37.3219C147.515 37.5053 147.862 37.5864 148.207 37.5524C149.322 37.5524 149.87 37.2051 149.87 36.4924C149.88 36.3284 149.835 36.1658 149.742 36.0301C149.65 35.8944 149.515 35.7935 149.358 35.7431C148.973 35.6058 148.57 35.5288 148.161 35.5146C147.608 35.4787 147.063 35.3617 146.544 35.1674C146.123 35.0278 145.761 34.7512 145.516 34.3818C145.271 34.0124 145.156 33.5715 145.191 33.1296C145.191 31.8228 146.014 30.9547 147.558 30.7537V30.1597C147.558 29.8856 147.659 29.7851 147.933 29.7851L148.563 29.7302Z" fill="white"/>
<path d="M133.916 59.502H161.567V63.9339H133.916V59.502Z" fill="white"/>
<path opacity="0.21" d="M133.916 69.5354H161.567V73.9673H133.916V69.5354Z" fill="white"/>
<path d="M200.77 70.9612H212.366V78.893H200.77V70.9612Z" fill="#C1C1C1"/>
<path d="M218.342 65.7251H229.938V78.8839H218.342V65.7251Z" fill="#C1C1C1"/>
<path d="M235.631 56.7971H247.227V78.8838H235.631V56.7971Z" fill="#C1C1C1"/>
<path d="M195.807 78.3718H253.048V80.4827H195.807V78.3718Z" fill="#878787"/>
<path d="M119.961 10.5312C121.218 10.5312 122.237 9.51249 122.237 8.25584C122.237 6.99919 121.218 5.98047 119.961 5.98047C118.705 5.98047 117.686 6.99919 117.686 8.25584C117.686 9.51249 118.705 10.5312 119.961 10.5312Z" fill="white"/>
<path d="M126.596 10.5312C127.852 10.5312 128.871 9.51249 128.871 8.25584C128.871 6.99919 127.852 5.98047 126.596 5.98047C125.339 5.98047 124.32 6.99919 124.32 8.25584C124.32 9.51249 125.339 10.5312 126.596 10.5312Z" fill="#68E1FD"/>
<path d="M133.294 10.5312C134.551 10.5312 135.569 9.51249 135.569 8.25584C135.569 6.99919 134.551 5.98047 133.294 5.98047C132.037 5.98047 131.019 6.99919 131.019 8.25584C131.019 9.51249 132.037 10.5312 133.294 10.5312Z" fill="#FFD200"/>
<path opacity="0.31" d="M188.497 92.4902H260.359V118.223H188.497V92.4902Z" fill="#C1C1C1"/>
<path d="M206.16 67.2053L205.375 66.7393L213.325 53.3886L224.034 61.6128L234.79 45.7126L241.762 52.9683L241.104 53.5988L234.918 47.1656L224.245 62.9287L213.58 54.741L206.16 67.2053Z" fill="#878787"/>
<path opacity="0.58" d="M148.454 192.131C148.454 192.131 142.652 190.551 141.391 185.15C141.391 185.15 150.382 183.322 150.638 192.616L148.454 192.131Z" fill="#68E1FD"/>
<path opacity="0.73" d="M149.167 191.556C149.167 191.556 145.11 185.159 148.673 179.155C148.673 179.155 155.518 183.496 152.475 191.574L149.167 191.556Z" fill="#68E1FD"/>
<path d="M150.217 191.565C150.217 191.565 152.356 184.793 158.834 183.514C158.834 183.514 160.05 187.91 154.64 191.583L150.217 191.565Z" fill="#68E1FD"/>
<path d="M145.996 191.409L147.175 199.46L154.586 199.487L155.673 191.455L145.996 191.409Z" fill="#24285B"/>
<path d="M220.544 140.977H268.025V162.588H220.544V140.977Z" fill="#24285B"/>
<path d="M253.98 155.817H263.511L258.741 146.862L253.98 155.817Z" fill="#68E1FD"/>
<path d="M248.086 147.227H231.665C231.019 147.227 230.495 147.751 230.495 148.397V148.899C230.495 149.545 231.019 150.069 231.665 150.069H248.086C248.732 150.069 249.256 149.545 249.256 148.899V148.397C249.256 147.751 248.732 147.227 248.086 147.227Z" fill="white"/>
<path opacity="0.15" d="M248.086 152.628H231.665C231.019 152.628 230.495 153.151 230.495 153.797V154.3C230.495 154.946 231.019 155.47 231.665 155.47H248.086C248.732 155.47 249.256 154.946 249.256 154.3V153.797C249.256 153.151 248.732 152.628 248.086 152.628Z" fill="white"/>
<path d="M160.014 140.977H207.495V162.588H160.014V140.977Z" fill="#24285B"/>
<path d="M193.459 155.817H202.981L198.22 146.862L193.459 155.817Z" fill="#FFD200"/>
<path d="M187.556 147.227H171.135C170.489 147.227 169.965 147.751 169.965 148.397V148.899C169.965 149.545 170.489 150.069 171.135 150.069H187.556C188.202 150.069 188.726 149.545 188.726 148.899V148.397C188.726 147.751 188.202 147.227 187.556 147.227Z" fill="white"/>
<path opacity="0.15" d="M187.556 152.628H171.135C170.489 152.628 169.965 153.151 169.965 153.797V154.3C169.965 154.946 170.489 155.47 171.135 155.47H187.556C188.202 155.47 188.726 154.946 188.726 154.3V153.797C188.726 153.151 188.202 152.628 187.556 152.628Z" fill="white"/>
<path d="M39.7571 93.5412C38.8433 93.5412 37.9295 93.5412 37.0157 93.4498C36.9561 93.4475 36.8975 93.4333 36.8435 93.408C36.7894 93.3827 36.741 93.3469 36.701 93.3027C36.661 93.2584 36.6302 93.2066 36.6105 93.1502C36.5908 93.0939 36.5825 93.0342 36.5862 92.9746C36.5844 92.9138 36.5958 92.8532 36.6197 92.7971C36.6436 92.7411 36.6793 92.6909 36.7245 92.6501C36.7697 92.6092 36.8233 92.5787 36.8814 92.5606C36.9396 92.5424 37.001 92.5372 37.0614 92.5452C37.9752 92.5452 38.889 92.6091 39.8028 92.6274C39.924 92.6274 40.0402 92.6755 40.1259 92.7612C40.2116 92.8469 40.2597 92.9631 40.2597 93.0843C40.2587 93.1479 40.2446 93.2107 40.2184 93.2687C40.1922 93.3266 40.1543 93.3786 40.1073 93.4215C40.0602 93.4643 40.0048 93.497 39.9446 93.5176C39.8844 93.5382 39.8206 93.5462 39.7571 93.5412ZM27.9599 92.3715H27.8686C26.9548 92.1796 26.0409 91.9695 25.1271 91.741C25.0689 91.7261 25.0142 91.6999 24.9661 91.6637C24.918 91.6276 24.8775 91.5824 24.8469 91.5306C24.8164 91.4788 24.7963 91.4215 24.788 91.362C24.7796 91.3024 24.7831 91.2418 24.7982 91.1836C24.8324 91.0665 24.9102 90.9671 25.0157 90.9059C25.1212 90.8446 25.2461 90.8263 25.3647 90.8546C26.2054 91.0831 27.0918 91.2932 27.9965 91.476C28.0565 91.4814 28.1148 91.4986 28.1682 91.5265C28.2216 91.5545 28.2689 91.5927 28.3075 91.6389C28.3461 91.6852 28.3753 91.7386 28.3932 91.7961C28.4112 91.8536 28.4177 91.914 28.4123 91.974C28.4069 92.034 28.3897 92.0924 28.3618 92.1458C28.3338 92.1991 28.2956 92.2465 28.2494 92.2851C28.2031 92.3237 28.1497 92.3528 28.0922 92.3708C28.0347 92.3888 27.9743 92.3952 27.9142 92.3898L27.9599 92.3715ZM16.8572 88.3234C16.7741 88.3207 16.6928 88.2988 16.6196 88.2594C15.8205 87.784 15.0458 87.2686 14.2986 86.7151C14.2506 86.6791 14.2101 86.634 14.1796 86.5824C14.149 86.5307 14.1289 86.4736 14.1204 86.4142C14.1119 86.3548 14.1152 86.2943 14.1301 86.2362C14.145 86.1781 14.1712 86.1234 14.2072 86.0754C14.2432 86.0274 14.2883 85.987 14.3399 85.9564C14.3915 85.9259 14.4487 85.9057 14.5081 85.8973C14.5675 85.8888 14.628 85.8921 14.6861 85.907C14.7442 85.9219 14.7988 85.9481 14.8468 85.9841C15.5672 86.5213 16.3144 87.0215 17.0857 87.4827C17.1714 87.5336 17.2382 87.6111 17.2758 87.7035C17.3133 87.7958 17.3197 87.898 17.2938 87.9943C17.2679 88.0906 17.2112 88.1758 17.1324 88.2368C17.0536 88.2979 16.9569 88.3315 16.8572 88.3325V88.3234ZM8.63298 79.9895C8.55059 79.9907 8.46946 79.9692 8.39851 79.9273C8.32757 79.8854 8.26957 79.8247 8.23091 79.7519C7.78628 78.9309 7.40149 78.0788 7.07951 77.2024C7.05024 77.1451 7.03339 77.0823 7.03007 77.0181C7.02675 76.9538 7.03704 76.8896 7.06025 76.8296C7.08347 76.7696 7.11909 76.7152 7.16479 76.6699C7.21049 76.6246 7.26523 76.5895 7.32544 76.5669C7.38564 76.5442 7.44995 76.5345 7.51416 76.5384C7.57837 76.5423 7.64103 76.5598 7.69804 76.5896C7.75505 76.6194 7.80512 76.6609 7.84498 76.7114C7.88484 76.7619 7.9136 76.8202 7.92935 76.8826C8.24344 77.7195 8.61282 78.5345 9.03505 79.3224C9.0911 79.4295 9.10336 79.5541 9.06926 79.6701C9.03517 79.786 8.95737 79.8841 8.85229 79.9438C8.76751 79.986 8.67204 80.0019 8.57815 79.9895H8.63298ZM6.11088 68.5304C6.05086 68.528 5.9919 68.5139 5.93736 68.4887C5.88283 68.4636 5.83378 68.4279 5.79304 68.3838C5.7523 68.3396 5.72067 68.2879 5.69994 68.2315C5.67921 68.1751 5.66981 68.1152 5.67225 68.0552C5.70363 67.1379 5.78293 66.2228 5.90985 65.3138C5.9256 65.1926 5.98884 65.0827 6.08567 65.0081C6.18249 64.9336 6.30497 64.9005 6.42614 64.9163C6.54732 64.9321 6.65728 64.9953 6.73182 65.0921C6.80637 65.1889 6.8394 65.3114 6.82365 65.4326C6.70486 66.3464 6.62261 67.2602 6.5952 68.1192C6.58359 68.2372 6.52658 68.346 6.43621 68.4227C6.34584 68.4995 6.22918 68.5381 6.11088 68.5304ZM8.79747 57.0256C8.74032 57.0385 8.68099 57.0385 8.62384 57.0256C8.56771 57.0026 8.51671 56.9687 8.47383 56.9258C8.43095 56.8829 8.39703 56.8319 8.37407 56.7758C8.3511 56.7196 8.33954 56.6595 8.34007 56.5988C8.34059 56.5382 8.35318 56.4782 8.37711 56.4225C8.7335 55.5818 9.12644 54.7411 9.54679 53.9095C9.6033 53.8036 9.69851 53.7236 9.81256 53.6861C9.92662 53.6487 10.0507 53.6567 10.159 53.7085C10.2135 53.7356 10.262 53.7733 10.3017 53.8194C10.3414 53.8655 10.3715 53.919 10.3902 53.9769C10.4089 54.0348 10.4159 54.0958 10.4107 54.1564C10.4056 54.217 10.3883 54.276 10.3601 54.3299C9.94886 55.134 9.56506 55.9656 9.21782 56.788C9.17778 56.8636 9.11691 56.9262 9.04241 56.9683C8.96791 57.0104 8.88291 57.0303 8.79747 57.0256ZM15.057 46.9738C14.9657 46.9743 14.8763 46.9475 14.8004 46.8967C14.7245 46.846 14.6655 46.7737 14.6311 46.6891C14.5966 46.6045 14.5884 46.5116 14.6073 46.4222C14.6262 46.3329 14.6714 46.2513 14.7372 46.1879C15.4065 45.5225 16.1276 44.9113 16.8938 44.3603C16.9926 44.2909 17.1146 44.2626 17.2339 44.2813C17.3532 44.3001 17.4606 44.3644 17.5334 44.4608C17.5685 44.5099 17.5935 44.5655 17.6069 44.6243C17.6204 44.6831 17.6221 44.744 17.6119 44.8035C17.6017 44.8629 17.5798 44.9198 17.5475 44.9708C17.5153 45.0218 17.4732 45.0658 17.4238 45.1005C16.6971 45.6148 16.0127 46.1862 15.3769 46.8093C15.2995 46.9126 15.1846 46.9815 15.057 47.0012V46.9738ZM25.3373 41.2168C25.2434 41.2168 25.1518 41.1878 25.075 41.1338C24.9981 41.0799 24.9398 41.0035 24.9078 40.9152C24.8877 40.8583 24.879 40.7978 24.8824 40.7375C24.8857 40.6772 24.901 40.6181 24.9274 40.5637C24.9537 40.5093 24.9906 40.4607 25.0359 40.4206C25.0811 40.3806 25.1339 40.3499 25.1911 40.3304C26.0227 40.038 26.9091 39.7638 27.8229 39.4988C27.8829 39.482 27.9456 39.4772 28.0075 39.4847C28.0693 39.4921 28.1291 39.5117 28.1834 39.5422C28.2377 39.5728 28.2855 39.6137 28.324 39.6627C28.3624 39.7117 28.3909 39.7678 28.4077 39.8278C28.4245 39.8878 28.4293 39.9505 28.4219 40.0124C28.4144 40.0743 28.3949 40.1341 28.3643 40.1884C28.3338 40.2427 28.2928 40.2904 28.2438 40.3289C28.1948 40.3674 28.1387 40.3958 28.0787 40.4126C27.1649 40.6685 26.306 40.9426 25.4835 41.2351L25.3373 41.2168ZM36.9061 38.4114C36.7849 38.4223 36.6644 38.3846 36.571 38.3067C36.4776 38.2287 36.419 38.1168 36.4081 37.9956C36.3972 37.8745 36.4348 37.7539 36.5128 37.6605C36.5908 37.5671 36.7027 37.5085 36.8238 37.4976C37.7376 37.3423 38.6514 37.2052 39.5653 37.0681C39.6253 37.0591 39.6864 37.062 39.7453 37.0767C39.8042 37.0913 39.8596 37.1174 39.9084 37.1535C39.9572 37.1895 39.9984 37.2349 40.0297 37.2869C40.061 37.3388 40.0817 37.3965 40.0907 37.4565C40.0997 37.5165 40.0968 37.5777 40.0821 37.6366C40.0675 37.6954 40.0414 37.7509 40.0053 37.7996C39.9693 37.8484 39.9239 37.8896 39.872 37.9209C39.82 37.9522 39.7623 37.9729 39.7023 37.9819C38.7885 38.1099 37.8747 38.2561 36.9609 38.4114H36.9061ZM98.9351 37.5524H98.8894C98.8894 37.5524 97.9116 37.4519 96.148 37.3057C96.088 37.3009 96.0295 37.2843 95.9759 37.2569C95.9223 37.2295 95.8746 37.1919 95.8356 37.146C95.7966 37.1002 95.767 37.0472 95.7484 36.9899C95.7299 36.9326 95.7228 36.8723 95.7276 36.8123C95.7324 36.7523 95.749 36.6938 95.7764 36.6402C95.8038 36.5866 95.8415 36.5389 95.8873 36.4999C95.9331 36.4608 95.9862 36.4312 96.0435 36.4127C96.1007 36.3942 96.1611 36.3871 96.2211 36.3919C97.9756 36.529 98.9625 36.6295 98.9625 36.6295C99.0226 36.6352 99.081 36.6528 99.1343 36.6812C99.1876 36.7096 99.2347 36.7483 99.2729 36.795C99.3112 36.8418 99.3398 36.8956 99.3571 36.9535C99.3744 37.0113 99.38 37.072 99.3737 37.1321C99.3622 37.2492 99.3068 37.3576 99.2187 37.4356C99.1306 37.5136 99.0162 37.5553 98.8985 37.5524H98.9351ZM48.6759 36.9493C48.5547 36.9493 48.4385 36.9012 48.3528 36.8155C48.2671 36.7298 48.219 36.6136 48.219 36.4924C48.219 36.3712 48.2671 36.255 48.3528 36.1693C48.4385 36.0837 48.5547 36.0355 48.6759 36.0355L51.4173 35.8253C51.5379 35.8203 51.6558 35.8622 51.7462 35.9423C51.8365 36.0224 51.8922 36.1345 51.9016 36.2548C51.9092 36.3746 51.8693 36.4925 51.7907 36.5831C51.712 36.6738 51.6009 36.7298 51.4812 36.7392L48.7398 36.9493H48.6759ZM87.0556 36.7026L84.3142 36.5655C84.1931 36.5655 84.0768 36.5174 83.9911 36.4317C83.9055 36.346 83.8573 36.2298 83.8573 36.1086C83.8573 35.9874 83.9055 35.8712 83.9911 35.7855C84.0768 35.6999 84.1931 35.6517 84.3142 35.6517L87.0556 35.7797C87.1157 35.7831 87.1744 35.7985 87.2285 35.8247C87.2827 35.851 87.331 35.8876 87.371 35.9326C87.4109 35.9776 87.4415 36.0301 87.4611 36.0869C87.4807 36.1438 87.4888 36.2039 87.4851 36.264C87.4827 36.3811 87.4345 36.4927 87.3508 36.5747C87.2671 36.6567 87.1546 36.7026 87.0374 36.7026H87.0556ZM60.5553 36.3005C60.4341 36.3005 60.3179 36.2524 60.2322 36.1667C60.1466 36.081 60.0984 35.9648 60.0984 35.8436C60.0984 35.7224 60.1466 35.6062 60.2322 35.5205C60.3179 35.4349 60.4341 35.3867 60.5553 35.3867L63.2967 35.3228C63.4179 35.3228 63.5341 35.3709 63.6198 35.4566C63.7055 35.5423 63.7536 35.6585 63.7536 35.7797C63.7536 35.9008 63.7055 36.017 63.6198 36.1027C63.5341 36.1884 63.4179 36.2366 63.2967 36.2366L60.5553 36.3005ZM75.1762 36.3005H72.4348C72.3136 36.3005 72.1974 36.2524 72.1117 36.1667C72.026 36.081 71.9779 35.9648 71.9779 35.8436C71.9803 35.7216 72.0304 35.6054 72.1176 35.52C72.2047 35.4345 72.3219 35.3867 72.4439 35.3867H75.1853C75.3065 35.3867 75.4227 35.4349 75.5084 35.5205C75.5941 35.6062 75.6422 35.7224 75.6422 35.8436C75.6422 35.9648 75.5941 36.081 75.5084 36.1667C75.4227 36.2524 75.3065 36.3005 75.1853 36.3005H75.1762Z" fill="#E6E6E6"/>
</svg>
