<svg width="111" height="84" viewBox="0 0 111 84" fill="none" xmlns="http://www.w3.org/2000/svg">
<path opacity="0.3" d="M108.656 61.9534C106.431 67.0617 103.64 72.0488 92.8585 75.5579C92.0509 75.8272 91.2029 76.0802 90.3145 76.3171C86.1229 77.4559 80.8934 78.4048 74.3072 79.1034C73.5844 79.1802 72.8494 79.2529 72.0943 79.3255C70.8344 79.444 69.526 79.553 68.1692 79.6526C61.1994 80.1655 52.9413 80.4603 43.1327 80.428H42.5189C38.5153 80.4357 34.516 80.1658 30.5498 79.6203C29.9158 79.5315 29.2979 79.4386 28.6882 79.3336C27.8563 79.1909 27.0487 79.0375 26.2653 78.8733C24.6823 78.5421 23.1842 78.1585 21.7668 77.7345L20.0425 77.1813C18.5772 76.684 17.1401 76.1071 15.7378 75.453C15.4551 75.3237 15.1805 75.1905 14.9302 75.0491C14.4254 74.7947 13.9327 74.5363 13.4562 74.2698C11.0496 72.9621 8.82336 71.3467 6.83367 69.4644C-3.66554 59.4174 -1.34764 43.4021 8.89313 35.6206C9.24041 35.3541 9.59577 35.0997 9.96324 34.8574C11.9306 33.5426 14.0974 32.554 16.3799 31.9297C16.7312 31.8328 17.0865 31.744 17.45 31.6592C18.1486 31.5057 18.8633 31.3765 19.5942 31.2836L21.0237 31.1059C23.6445 30.795 26.346 30.5487 29.1001 30.3589C36.2032 29.8662 43.6374 29.7531 50.9061 29.8783H51.9318H52.3356C54.0397 29.9133 55.7304 29.9631 57.4075 30.0277H57.5973L58.9299 30.0802C67.1839 30.4194 74.9291 31.0171 81.3417 31.6672C84.4591 31.9822 87.2616 32.3093 89.6522 32.6243C90.69 32.7616 91.6713 32.8948 92.5314 33.0281C93.1977 33.129 93.8398 33.2461 94.4617 33.3794C94.7686 33.4481 95.0714 33.5207 95.3702 33.6015C95.5237 33.6365 95.6771 33.6769 95.8306 33.7227L96.3232 33.864L96.8603 34.0295C97.1874 34.1345 97.5105 34.2476 97.8214 34.3688C110.82 39.259 112.347 53.4813 108.656 61.9534Z" fill="#E6E6E6"/>
<path d="M77.5339 51.9023C77.5339 51.9023 88.8408 47.7269 89.5878 34.191C90.2016 22.8841 87.6657 14.6221 87.6657 14.6221L82.5413 15.8335C82.5413 15.8335 82.8724 32.0871 79.4965 36.5493C76.1206 41.0114 64.3655 37.5628 61.8538 43.7816C59.342 50.0003 61.458 57.3013 77.5339 51.9023Z" fill="#F4A28C"/>
<path d="M82.5409 15.8537C82.5409 15.8537 81.4183 13.98 81.5394 12.8412C81.6606 11.7024 82.5409 11.7186 82.5409 11.7186C82.5409 11.7186 82.1371 10.1033 82.7993 9.37645C83.4616 8.64959 87.0071 8.83534 87.2413 9.37645C87.9295 11.0392 88.0709 12.8777 87.6451 14.6261C87.0677 17.4043 82.5409 15.8537 82.5409 15.8537Z" fill="#F4A28C"/>
<path d="M53.8133 33.3148C53.8133 33.3148 53.1026 38.4917 51.8306 39.683H58.5743C58.5743 39.683 56.3896 37.5145 56.5916 32.9675L53.8133 33.3148Z" fill="#F4A28C"/>
<path opacity="0.09" d="M53.8133 33.3148C53.8133 33.3148 53.1026 38.4917 51.8306 39.683H58.5743C58.5743 39.683 56.3896 37.5145 56.5916 32.9675L53.8133 33.3148Z" fill="black"/>
<path d="M51.9438 29.115C51.9438 29.115 51.7055 35.3338 54.9643 35.7215C58.2231 36.1091 57.4397 29.0262 57.4397 29.0262C57.4397 29.0262 57.6174 25.5332 55.7033 25.1899C53.7892 24.8467 51.2694 24.665 51.9438 29.115Z" fill="#F4A28C"/>
<path d="M51.9722 30.5487C51.9722 30.5487 50.2762 30.1449 50.4175 30.9929C50.5589 31.8409 50.3449 33.012 52.2428 32.3901L51.9722 30.5487Z" fill="#F4A28C"/>
<path d="M57.4197 30.1167C57.4197 30.1167 59.0713 29.5473 59.0107 30.4115C58.9501 31.2756 59.2691 32.4305 57.3228 31.9702L57.4197 30.1167Z" fill="#F4A28C"/>
<path d="M33.1662 51.9023C33.1662 51.9023 21.8594 47.7269 21.1124 34.191C20.5026 22.8841 23.0345 14.6221 23.0345 14.6221L28.163 15.8335C28.163 15.8335 27.8278 32.0871 31.2037 36.5493C34.5796 41.0114 46.3387 37.5507 48.8464 43.7614C51.3541 49.9721 49.2462 57.3013 33.1662 51.9023Z" fill="#F4A28C"/>
<path d="M69.1345 75.3399L42.0789 75.5539L37.5036 66.0925C35.6675 62.3748 34.646 58.308 34.5073 54.1638C34.5073 53.8448 34.5073 53.5258 34.5073 53.2108C34.5316 47.4524 36.1024 40.216 43.7951 39.9778L47.2033 39.8566C52.4529 39.6547 58.0054 39.4084 62.7663 39.8324C69.0013 40.3816 73.8995 42.0655 75.0827 46.4308C77.3562 54.8705 69.1345 75.3399 69.1345 75.3399Z" fill="#68E1FD"/>
<path d="M51.972 30.5487C51.972 30.5487 52.6504 29.5917 53.1835 27.3182C54.1105 27.5307 55.0688 27.5703 56.0102 27.4353C56.628 27.3465 57.4922 27.189 57.8718 26.6519C58.3335 25.9761 58.5475 25.1616 58.4775 24.3461C58.4349 23.9365 58.2795 23.5467 58.0286 23.2202C57.7776 22.8937 57.441 22.6432 57.0561 22.4967C57.0515 22.7341 56.9995 22.9683 56.9031 23.1853C56.8067 23.4024 56.6679 23.598 56.4948 23.7606C56.439 23.3038 56.2476 22.8742 55.9453 22.5272C55.643 22.1803 55.2436 21.9319 54.7987 21.8142C54.8404 22.125 54.8128 22.4411 54.7179 22.7399C54.6229 23.0388 54.463 23.3128 54.2496 23.5425C54.2319 23.2288 54.1475 22.9224 54.0019 22.6438C53.8564 22.3653 53.6531 22.121 53.4056 21.9273C53.4274 22.5102 53.2429 23.0822 52.8847 23.5425C52.4283 24.124 51.7297 24.4754 51.2694 25.0447C50.0781 26.4985 50.4618 28.8083 51.1119 30.3953L51.972 30.5487Z" fill="#24285B"/>
<path d="M57.8072 26.8296C57.8072 26.8296 58.9904 29.2929 57.4034 30.1166L56.729 26.8296H57.8072Z" fill="#24285B"/>
<path opacity="0.09" d="M34.8867 48.6074C34.8867 48.6074 37.7134 67.5868 50.4255 69.0607C63.1376 70.5346 73.1724 63.2982 73.1724 63.2982L69.1343 75.344L42.0584 75.554L37.1036 65.2729C37.1036 65.2729 33.1543 56.8331 34.8867 48.6074Z" fill="black"/>
<path d="M42.0586 75.554L43.7587 83.2022H67.3738L69.1344 75.344L42.0586 75.554Z" fill="#24285B"/>
<path d="M62.7579 39.8324V40.2928C62.7579 42.3565 61.938 44.3358 60.4787 45.7951C59.0194 47.2544 57.0401 48.0743 54.9764 48.0743C52.9126 48.0743 50.9333 47.2544 49.474 45.7951C48.0147 44.3358 47.1948 42.3565 47.1948 40.2928V39.8566C52.4525 39.6547 57.9969 39.4084 62.7579 39.8324Z" fill="#F4A28C"/>
<path d="M28.1469 15.8537C28.1469 15.8537 29.2655 13.98 29.1484 12.8412C29.0313 11.7024 28.1469 11.7186 28.1469 11.7186C28.1469 11.7186 28.5507 10.1033 27.8844 9.37645C27.2181 8.64959 23.6807 8.83534 23.4425 9.37645C22.757 11.0398 22.6157 12.8774 23.0387 14.6261C23.6363 17.4043 28.1469 15.8537 28.1469 15.8537Z" fill="#F4A28C"/>
<path d="M102.134 10.1882H9.93895C9.36133 10.1882 8.89307 10.6565 8.89307 11.2341V11.2382C8.89307 11.8158 9.36133 12.284 9.93895 12.284H102.134C102.712 12.284 103.18 11.8158 103.18 11.2382V11.2341C103.18 10.6565 102.712 10.1882 102.134 10.1882Z" fill="#24285B"/>
<path d="M18.5967 0H13.7025C12.5985 0 11.7036 0.894933 11.7036 1.99889V20.4694C11.7036 21.5734 12.5985 22.4683 13.7025 22.4683H18.5967C19.7007 22.4683 20.5956 21.5734 20.5956 20.4694V1.99889C20.5956 0.894933 19.7007 0 18.5967 0Z" fill="#FFD200"/>
<path d="M98.3707 0H93.4764C92.3725 0 91.4775 0.894933 91.4775 1.99889V20.4694C91.4775 21.5734 92.3725 22.4683 93.4764 22.4683H98.3707C99.4746 22.4683 100.37 21.5734 100.37 20.4694V1.99889C100.37 0.894933 99.4746 0 98.3707 0Z" fill="#FFD200"/>
<path d="M26.8751 10.7497C26.5022 10.6912 26.1204 10.7466 25.7796 10.9087C25.4388 11.0709 25.1548 11.3321 24.965 11.6583C24.9168 11.7306 24.8891 11.8145 24.8849 11.9013C24.8806 11.988 24.8999 12.0743 24.9408 12.151C25.0245 12.2404 25.1379 12.2964 25.2598 12.3085C25.7368 12.3927 26.2214 12.4265 26.7054 12.4094C26.4001 12.5111 26.1222 12.6816 25.8933 12.9078C25.6643 13.1339 25.4904 13.4097 25.385 13.7137C25.282 13.9731 25.282 14.262 25.385 14.5214C25.494 14.6909 25.645 14.8294 25.8233 14.9235C26.0015 15.0176 26.2011 15.0641 26.4026 15.0584C27.4404 15.123 29.1162 14.38 29.1728 13.1605C29.2253 12.0339 27.8967 10.9113 26.8751 10.7497Z" fill="#F4A28C"/>
<path d="M84.6811 10.7496C85.0539 10.6905 85.436 10.7457 85.7769 10.9079C86.1178 11.07 86.4017 11.3316 86.5911 11.6582C86.6401 11.7301 86.6683 11.8142 86.6726 11.9011C86.6769 11.9881 86.6571 12.0745 86.6153 12.1509C86.5327 12.2395 86.4209 12.2954 86.3004 12.3083C85.822 12.3924 85.3361 12.4263 84.8507 12.4093C85.156 12.511 85.4339 12.6815 85.6628 12.9077C85.8918 13.1338 86.0657 13.4096 86.1711 13.7136C86.2741 13.973 86.2741 14.2619 86.1711 14.5213C86.0621 14.6908 85.9111 14.8293 85.7328 14.9234C85.5546 15.0175 85.355 15.064 85.1535 15.0583C84.1198 15.1229 82.4439 14.3799 82.3833 13.1604C82.3308 12.0338 83.6594 10.9111 84.6811 10.7496Z" fill="#F4A28C"/>
<path d="M9.97534 48.6477V34.8574C9.60787 35.0997 9.25251 35.3541 8.90523 35.6206V48.6477C7.96749 48.783 7.1158 49.2685 6.52157 50.0064C5.92734 50.7443 5.63468 51.6799 5.70249 52.625C5.7703 53.57 6.19355 54.4542 6.88706 55.0997C7.58056 55.7453 8.49284 56.1041 9.44029 56.1041C10.3877 56.1041 11.3 55.7453 11.9935 55.0997C12.687 54.4542 13.1103 53.57 13.1781 52.625C13.2459 51.6799 12.9532 50.7443 12.359 50.0064C11.7648 49.2685 10.9131 48.783 9.97534 48.6477ZM9.44231 55.2582C8.86726 55.2582 8.30513 55.0877 7.827 54.7682C7.34887 54.4487 6.97621 53.9946 6.75615 53.4634C6.53609 52.9321 6.47851 52.3475 6.5907 51.7835C6.70289 51.2195 6.97979 50.7014 7.38641 50.2948C7.79303 49.8882 8.31109 49.6113 8.87509 49.4991C9.43908 49.3869 10.0237 49.4445 10.5549 49.6646C11.0862 49.8846 11.5403 50.2573 11.8598 50.7354C12.1793 51.2135 12.3498 51.7757 12.3498 52.3507C12.3498 52.7335 12.2742 53.1126 12.1273 53.4662C11.9804 53.8197 11.7652 54.1408 11.4939 54.4109C11.2227 54.681 10.9007 54.895 10.5466 55.0404C10.1924 55.1858 9.81302 55.2598 9.43019 55.2582H9.44231Z" fill="#E6E6E6"/>
<path d="M17.45 41.064V31.6592C17.0865 31.744 16.7312 31.8328 16.3798 31.9297V41.064C15.4421 41.1993 14.5904 41.6848 13.9962 42.4227C13.4019 43.1606 13.1093 44.0963 13.1771 45.0413C13.2449 45.9863 13.6682 46.8705 14.3617 47.5161C15.0552 48.1616 15.9674 48.5205 16.9149 48.5205C17.8623 48.5205 18.7746 48.1616 19.4681 47.5161C20.1616 46.8705 20.5849 45.9863 20.6527 45.0413C20.7205 44.0963 20.4278 43.1606 19.8336 42.4227C19.2394 41.6848 18.3877 41.1993 17.45 41.064ZM16.9169 47.6584C16.3419 47.6584 15.7797 47.4878 15.3016 47.1684C14.8235 46.8489 14.4508 46.3948 14.2308 45.8635C14.0107 45.3322 13.9531 44.7477 14.0653 44.1837C14.1775 43.6197 14.4544 43.1016 14.861 42.695C15.2676 42.2884 15.7857 42.0115 16.3497 41.8993C16.9137 41.7871 17.4983 41.8447 18.0296 42.0647C18.5608 42.2848 19.0149 42.6574 19.3344 43.1356C19.6539 43.6137 19.8244 44.1758 19.8244 44.7509C19.8244 45.522 19.5181 46.2615 18.9728 46.8068C18.4275 47.352 17.688 47.6584 16.9169 47.6584Z" fill="#E6E6E6"/>
<path opacity="0.3" d="M21.1286 69.1332C24.1952 69.1332 26.6811 66.6473 26.6811 63.5808C26.6811 60.5142 24.1952 58.0283 21.1286 58.0283C18.0621 58.0283 15.5762 60.5142 15.5762 63.5808C15.5762 66.6473 18.0621 69.1332 21.1286 69.1332Z" fill="black"/>
<path opacity="0.3" d="M21.1288 64.7437C21.7711 64.7437 22.2918 64.223 22.2918 63.5807C22.2918 62.9384 21.7711 62.4177 21.1288 62.4177C20.4865 62.4177 19.9658 62.9384 19.9658 63.5807C19.9658 64.223 20.4865 64.7437 21.1288 64.7437Z" fill="black"/>
<path opacity="0.3" d="M26.6813 76.7695C26.6853 77.493 26.5481 78.2104 26.2775 78.8815C24.6945 78.5503 23.1964 78.1667 21.779 77.7427L20.0547 77.1895C18.5894 76.6922 17.1523 76.1152 15.75 75.4611C16.0675 74.1391 16.8594 72.9797 17.9754 72.203C19.0913 71.4263 20.4536 71.0863 21.8037 71.2477C23.1537 71.4091 24.3974 72.0606 25.2988 73.0785C26.2002 74.0964 26.6965 75.4099 26.6934 76.7695H26.6813Z" fill="black"/>
<path opacity="0.3" d="M22.2918 76.7694C22.2916 76.9624 22.2435 77.1523 22.1519 77.3221C22.0603 77.492 21.928 77.6364 21.7668 77.7426L20.0425 77.1894C19.9942 77.0601 19.9682 76.9235 19.9658 76.7855C19.9658 76.4771 20.0884 76.1813 20.3065 75.9632C20.5246 75.7451 20.8204 75.6226 21.1288 75.6226C21.4373 75.6226 21.7331 75.7451 21.9512 75.9632C22.1693 76.1813 22.2918 76.4771 22.2918 76.7855V76.7694Z" fill="black"/>
<path d="M21.6133 56.7766L21.153 58.0325L21.0197 58.4L17.559 67.8492L17.0825 69.1495L16.501 70.7406L14.91 75.0816C14.4052 74.8272 13.9125 74.5687 13.436 74.3022L16.3354 66.3955L19.2631 58.3475L19.8406 56.7766H21.6133Z" fill="#E6E6E6"/>
<path d="M30.5702 79.6285C29.9362 79.5397 29.3183 79.4468 28.7086 79.3418L25.5467 70.7244L24.9652 69.1334L24.5129 67.9704L21.0078 58.4L20.8745 58.0406L20.4102 56.7766H22.1668L22.7119 58.2667L25.7688 66.6055L30.5702 79.6285Z" fill="#E6E6E6"/>
<path d="M15.6812 69.1333H26.5801V70.7243H15.6812V69.1333Z" fill="#E6E6E6"/>
<path d="M99.2994 42.6995H98.7381L96.8604 34.0579L96.3233 33.8923L95.8306 33.751L97.777 42.6995H93.3956L95.3703 33.6298C95.0715 33.549 94.7686 33.4764 94.4617 33.4077L92.4426 42.6955H91.8813C91.2473 42.6955 90.6392 42.9473 90.1909 43.3957C89.7426 43.844 89.4907 44.452 89.4907 45.0861V68.3337C89.4907 68.9677 89.7426 69.5758 90.1909 70.0241C90.6392 70.4724 91.2473 70.7243 91.8813 70.7243H99.2994C99.9334 70.7243 100.541 70.4724 100.99 70.0241C101.438 69.5758 101.69 68.9677 101.69 68.3337V45.0901C101.69 44.4561 101.438 43.848 100.99 43.3997C100.541 42.9514 99.9334 42.6995 99.2994 42.6995Z" fill="#E6E6E6"/>
<path d="M57.9399 26.5408L50.7838 26.872C50.4831 26.8859 50.2505 27.141 50.2645 27.4418L50.2721 27.6072C50.286 27.9079 50.5411 28.1405 50.8419 28.1265L57.9979 27.7953C58.2987 27.7814 58.5312 27.5263 58.5173 27.2256L58.5096 27.0602C58.4957 26.7594 58.2406 26.5269 57.9399 26.5408Z" fill="#68E1FD"/>
<path opacity="0.54" d="M45.9473 52.064H64.4541V63.0881H45.9473V52.064Z" fill="white"/>
</svg>
