<svg width="280" height="239" viewBox="0 0 280 239" fill="none" xmlns="http://www.w3.org/2000/svg">
<path d="M23.0308 0H157.02V157.259H23.0308V0Z" fill="#E6E6E6"/>
<path d="M173.496 9.73779H263.574V93.6235H173.496V9.73779Z" fill="#E6E6E6"/>
<path d="M215.391 107.691H279.6V139.924H215.391V107.691Z" fill="#E6E6E6"/>
<path opacity="0.08" d="M135.72 84.7745C135.72 84.7745 128.839 82.9874 127.119 87.8612C125.399 92.7349 109.43 86.3895 107.509 100.858C106.439 108.923 91.12 123.449 71.195 127.883C51.27 132.317 49.9321 157.269 49.9321 157.269H104.088L140.03 104.566L135.72 84.7745Z" fill="black"/>
<path opacity="0.45" d="M146.633 238.9C205.834 238.9 253.826 228.096 253.826 214.77C253.826 201.443 205.834 190.64 146.633 190.64C87.4312 190.64 39.439 201.443 39.439 214.77C39.439 228.096 87.4312 238.9 146.633 238.9Z" fill="#E6E6E6"/>
<path d="M130.263 106.477C130.263 106.477 83.3697 101.508 85.1376 126.316C86.9056 151.124 113.195 203.952 113.195 203.952H170.791C170.791 203.952 214.502 136.914 193.239 115.355C171.976 93.7957 167.112 112.306 130.263 106.477Z" fill="#68E1FD"/>
<path d="M113.109 212.017L148.162 221.478L179.258 205.691L183.979 197.281H152.634H102.769L113.109 212.017Z" fill="#24285B"/>
<path d="M107.643 133.34C112.029 118.652 103.734 102.607 88.0427 114.361C77.2822 122.417 64.5245 148.114 63.8651 171.881C62.3361 226.534 129.374 167.743 137.707 136.446L129.46 131.572C129.46 131.572 115.555 157.785 100.409 163.462C89.4762 167.561 101.154 155.042 107.643 133.34Z" fill="#68E1FD"/>
<path opacity="0.46" d="M107.643 133.34C112.029 118.652 103.734 102.607 88.0427 114.361C77.2822 122.417 64.5245 148.114 63.8651 171.881C62.3361 226.534 129.374 167.743 137.707 136.446L129.46 131.572C129.46 131.572 115.555 157.785 100.409 163.462C89.4762 167.561 101.154 155.042 107.643 133.34Z" fill="white"/>
<path d="M130.263 106.477C130.263 106.477 123.048 117.83 130.119 121.892C137.191 125.953 139.456 121.318 139.456 121.318C139.456 121.318 144.722 127.53 149.433 122.713C154.144 117.897 153.475 108.302 148.678 103.878C143.881 99.4532 130.263 106.477 130.263 106.477Z" fill="white"/>
<path d="M131.907 106.821C132.247 108.922 132.467 111.04 132.566 113.166C132.661 116.033 133.588 120.381 138.175 121.222C145.238 122.532 147.111 111.37 147.111 111.37C147.111 111.37 151.554 100.858 143.909 99.4722C136.99 98.1343 130.502 97.2169 131.907 106.821Z" fill="#F4A28C"/>
<path opacity="0.08" d="M159.123 122.57C159.123 122.57 154.746 131.763 165.812 150.618C172.148 161.416 152.624 179.43 152.624 179.43L104.049 184.294L113.195 203.952H170.791C170.791 203.952 196.096 162.783 198.046 141.606C199.995 120.429 159.123 122.57 159.123 122.57Z" fill="black"/>
<path d="M146.633 111.781C146.633 111.781 147.034 108.388 149.987 108.532C152.94 108.675 151.784 115.011 146.633 111.781Z" fill="#F4A28C"/>
<path d="M133.607 109.889C133.607 109.889 134.639 106.64 131.897 105.541C129.154 104.442 127.577 110.701 133.607 109.889Z" fill="#F4A28C"/>
<path d="M231.188 132.566C236.027 132.566 239.951 128.642 239.951 123.802C239.951 118.963 236.027 115.039 231.188 115.039C226.348 115.039 222.424 118.963 222.424 123.802C222.424 128.642 226.348 132.566 231.188 132.566Z" fill="#C9C9C9"/>
<path d="M115.393 194.29L111.332 157.269H173.496L167.294 196.183L168.182 201.171L114.734 201.591L115.393 194.29Z" fill="#FFD200"/>
<path opacity="0.08" d="M225.731 125.16C225.731 125.16 242.464 127.147 245.799 139.924H234.465L225.731 125.16Z" fill="black"/>
<path d="M140.411 212.018C140.411 212.018 152.214 216.146 148.162 221.478C144.11 226.811 137.707 217.952 137.707 217.952L140.411 212.018Z" fill="#68E1FD"/>
<path opacity="0.08" d="M173.496 157.269L161.178 173.515C153.985 183.011 144.27 190.295 133.139 194.539L114.734 201.563L164.026 201.171H168.183L167.294 196.183L173.496 157.269Z" fill="black"/>
<path d="M131.907 106.821C131.907 106.821 120.439 105.177 125.58 96.7675C130.722 88.3579 131.821 94.6556 134.238 88.1668C136.656 81.678 138.835 80.3879 142.371 83.1688C145.907 85.9497 142.486 91.7696 147.837 90.1545C153.189 88.5395 156.858 86.9818 157.871 91.416C158.884 95.8501 157.871 97.9812 154.421 99.5007C150.972 101.02 156.39 106.993 147.732 109.43C139.074 111.867 134.554 102.396 134.554 102.396L131.907 106.821Z" fill="#24285B"/>
<path d="M140.775 209.963C140.775 209.963 93.0985 185.623 89.037 198.572C84.9756 211.52 117.83 219.041 139.036 219.825L140.775 209.963Z" fill="#24285B"/>
<path d="M143.03 182.527C145.97 182.527 148.353 180.143 148.353 177.204C148.353 174.264 145.97 171.881 143.03 171.881C140.09 171.881 137.707 174.264 137.707 177.204C137.707 180.143 140.09 182.527 143.03 182.527Z" fill="white"/>
<path d="M152.367 211.865C152.367 211.865 190.391 174.184 198.237 185.288C206.083 196.393 177.022 213.546 157.059 220.733L152.367 211.865Z" fill="#24285B"/>
<path d="M153.858 214.712C153.858 214.712 142.591 224.746 149.079 227.699C155.568 230.652 156.992 220.733 156.992 220.733L153.858 214.712Z" fill="#68E1FD"/>
<path d="M159.123 122.57C158.701 118.335 159.971 114.105 162.657 110.803C165.342 107.501 169.225 105.397 173.458 104.948C182.058 103.992 193.354 104.594 203.398 110.883C222.893 123.105 244.49 132.862 239.129 154.995C233.768 177.127 195.17 186.445 195.17 186.445L190.009 178.035C190.009 178.035 224.106 166.567 217.904 148.496C212.285 132.279 162.793 159.391 159.123 122.57Z" fill="#68E1FD"/>
<path opacity="0.46" d="M159.123 122.57C158.701 118.335 159.971 114.105 162.657 110.803C165.342 107.501 169.225 105.397 173.458 104.948C182.058 103.992 193.354 104.594 203.398 110.883C222.893 123.105 244.49 132.862 239.129 154.995C233.768 177.127 195.17 186.445 195.17 186.445L190.009 178.035C190.009 178.035 224.106 166.567 217.904 148.496C212.285 132.279 162.793 159.391 159.123 122.57Z" fill="white"/>
<path d="M190.86 179.43C190.86 179.43 180.099 186.703 184.008 188.709C187.916 190.716 194.52 185.384 194.52 185.384L190.86 179.43Z" fill="#F4A28C"/>
<path d="M130.903 132.422C130.903 132.422 134.725 122.981 140.029 123.745C145.333 124.51 137.076 136.073 137.076 136.073L130.903 132.422Z" fill="#F4A28C"/>
<path d="M38.0439 18.759H76.9288V72.0644H38.0439V18.759Z" fill="#C9C9C9"/>
<path d="M183.587 20.0015H213.661V47.82H183.587V20.0015Z" fill="#C9C9C9"/>
<path opacity="0.44" d="M183.587 55.5894H213.661V83.4079H183.587V55.5894Z" fill="#C9C9C9"/>
<path opacity="0.44" d="M223.514 55.5894H253.588V83.4079H223.514V55.5894Z" fill="#C9C9C9"/>
<path opacity="0.63" d="M185.833 42.5834L191.71 33.5048L198.629 41.5991L205.232 29.9785L211.415 42.7554V45.9663H185.833V42.5834Z" fill="white"/>
<path d="M198.39 31.8801C200.047 31.8801 201.391 30.5366 201.391 28.8794C201.391 27.2221 200.047 25.8787 198.39 25.8787C196.733 25.8787 195.389 27.2221 195.389 28.8794C195.389 30.5366 196.733 31.8801 198.39 31.8801Z" fill="white"/>
<path d="M223.753 20.0015H253.827V47.82H223.753V20.0015Z" fill="#C9C9C9"/>
<path opacity="0.63" d="M225.999 42.5834L231.876 33.5048L238.785 41.5991L245.398 29.9785L251.581 42.7554V45.9663H225.999V42.5834Z" fill="white"/>
<path d="M238.546 31.8801C240.203 31.8801 241.547 30.5366 241.547 28.8794C241.547 27.2221 240.203 25.8787 238.546 25.8787C236.889 25.8787 235.545 27.2221 235.545 28.8794C235.545 30.5366 236.889 31.8801 238.546 31.8801Z" fill="white"/>
<path d="M0 91.0435H57.9976V124.328H0V91.0435Z" fill="#FFD200"/>
<path d="M21.2054 115.88C20.906 115.886 20.6144 115.785 20.3836 115.594L11.7829 108.79C11.626 108.667 11.4989 108.51 11.4112 108.332C11.3235 108.153 11.2774 107.957 11.2764 107.758C11.2769 107.558 11.3217 107.361 11.4077 107.181C11.4936 107.001 11.6185 106.842 11.7733 106.716L20.374 99.7875C20.649 99.567 21.0003 99.4648 21.3507 99.5033C21.7011 99.5419 22.0218 99.718 22.2423 99.993C22.4628 100.268 22.565 100.619 22.5265 100.97C22.488 101.32 22.3118 101.641 22.0368 101.861L14.7262 107.738L22.0273 113.472C22.2434 113.643 22.401 113.877 22.4782 114.142C22.5554 114.407 22.5483 114.689 22.458 114.949C22.3677 115.21 22.1986 115.435 21.9742 115.595C21.7497 115.755 21.4811 115.842 21.2054 115.842V115.88Z" fill="#24285B"/>
<path d="M36.7825 115.88C36.5816 115.882 36.3832 115.836 36.2026 115.749C36.022 115.661 35.864 115.533 35.7408 115.374C35.5233 115.098 35.4242 114.746 35.4654 114.397C35.5066 114.047 35.6847 113.729 35.9606 113.51L43.2617 107.777L35.9511 101.899C35.671 101.679 35.49 101.356 35.4479 101.002C35.4058 100.648 35.506 100.292 35.7265 100.012C35.947 99.732 36.2697 99.551 36.6237 99.5089C36.9776 99.4668 37.3338 99.567 37.6139 99.7875L46.2146 106.716C46.3694 106.842 46.4943 107.001 46.5802 107.181C46.6662 107.361 46.711 107.558 46.7115 107.758C46.7105 107.957 46.6644 108.153 46.5767 108.332C46.489 108.51 46.3619 108.667 46.205 108.79L37.6043 115.594C37.3726 115.783 37.0816 115.885 36.7825 115.88Z" fill="#24285B"/>
<path d="M25.3818 115.88C25.1913 115.879 25.0029 115.84 24.8275 115.766C24.508 115.616 24.2605 115.347 24.1388 115.016C24.0171 114.684 24.0311 114.319 24.1777 113.998L30.4467 100.275C30.5159 100.112 30.6171 99.964 30.7443 99.8405C30.8715 99.7171 31.0222 99.6203 31.1873 99.5559C31.3525 99.4916 31.5289 99.4609 31.7062 99.4658C31.8834 99.4707 32.0578 99.511 32.2192 99.5844C32.3806 99.6577 32.5257 99.7627 32.6459 99.893C32.7661 100.023 32.859 100.176 32.9191 100.343C32.9793 100.51 33.0054 100.687 32.996 100.864C32.9866 101.041 32.9419 101.214 32.8644 101.374L26.5955 115.078C26.4922 115.314 26.3227 115.516 26.1073 115.659C25.892 115.801 25.64 115.878 25.3818 115.88Z" fill="#24285B"/>
<path d="M57.5008 36.6389C60.4723 36.6389 62.8811 34.2301 62.8811 31.2587C62.8811 28.2872 60.4723 25.8784 57.5008 25.8784C54.5294 25.8784 52.1206 28.2872 52.1206 31.2587C52.1206 34.2301 54.5294 36.6389 57.5008 36.6389Z" fill="white"/>
<path opacity="0.56" d="M46.7212 43.4146H68.9588V47.82H46.7212V43.4146Z" fill="white"/>
<path opacity="0.19" d="M46.7212 53.3816H68.9588V57.7871H46.7212V53.3816Z" fill="white"/>
<path opacity="0.46" d="M90.021 18.759H145.591V51.6807H90.021V18.759Z" fill="white"/>
<path d="M90.021 61.0842H145.591V72.0645H90.021V61.0842Z" fill="white"/>
<path d="M129.46 61.0842H145.592V72.0645H129.46V61.0842Z" fill="#C9C9C9"/>
<path d="M246.602 118.231H268.103V122.13H246.602V118.231Z" fill="#C9C9C9"/>
<path opacity="0.45" d="M246.602 125.475H268.103V129.374H246.602V125.475Z" fill="#C9C9C9"/>
</svg>
